<svg width="36" height="36" viewBox="0 0 36 36" fill="none" xmlns="http://www.w3.org/2000/svg">
<path d="M25.0621 26.2183C23.1077 28.1726 18.1028 26.3363 13.8833 22.1167C9.66372 17.8972 7.82739 12.8923 9.7817 10.9379L11.0685 9.65118C11.9568 8.76286 13.4205 8.78634 14.3378 9.70363L16.3309 11.6967C17.2482 12.614 17.2717 14.0778 16.3834 14.9661L16.107 15.2425C15.6274 15.7221 15.5804 16.4958 16.0261 17.0359C16.456 17.5568 16.9194 18.0756 17.4219 18.5781C17.9244 19.0806 18.4432 19.544 18.9641 19.9739C19.5042 20.4196 20.2779 20.3726 20.7575 19.893L21.0339 19.6166C21.9222 18.7283 23.386 18.7518 24.3033 19.6691L26.2964 21.6622C27.2137 22.5795 27.2371 24.0432 26.3488 24.9315L25.0621 26.2183Z" stroke="#F76808" stroke-width="1.5"/>
</svg>
