<svg width="48" height="48" viewBox="0 0 48 48" fill="none" xmlns="http://www.w3.org/2000/svg">
<path d="M10.5 36C6.91015 36 4 33.0695 4 29.4545C4 25.8614 6.98267 22.9013 10.5393 22.9092C10.5445 22.9093 10.5489 22.9053 10.5494 22.9001C11.1009 16.7882 16.2035 12 22.4167 12C27.0809 12 31.1193 14.6985 33.0763 18.6296C33.0782 18.6335 33.0824 18.6357 33.0867 18.6351C38.209 17.8921 43 22.0218 43 27.2727C43 32.0927 39.1198 36 34.3333 36L10.5 36Z" stroke="#21201C" stroke-width="2"/>
<path d="M37 14H43" stroke="#21201C" stroke-width="2" stroke-linecap="round" stroke-linejoin="round"/>
<path d="M40 11L40 17" stroke="#21201C" stroke-width="2" stroke-linecap="round" stroke-linejoin="round"/>
</svg>
