<svg width="24" height="24" viewBox="0 0 24 24" fill="none" xmlns="http://www.w3.org/2000/svg">
<path d="M2.04463 13.0225C1.54446 17.5225 5.37797 18.1891 7.04463 18.0224L9.04463 16.0224C11.0446 15.0225 12.0446 17.0225 11.5446 17.5224L13.0446 16.0224C15.4446 15.2224 15.7113 17.0224 15.5446 18.0224C21.0444 18.5225 22.2113 14.0224 22.0446 12.0224C21.6446 8.82242 20.0446 7.52245 18.0446 7.02261C17.5446 2.52245 13.878 1.85594 12.0446 2.02261C6.84463 2.82261 6.04443 7.02246 7.04463 9.52245C3.84463 9.12245 2.37797 11.6891 2.04463 13.0225Z" fill="#F76808"/>
<path d="M12 16L11 16C10.2 15.2 8.66667 16.3333 8 17L10 14L12 16Z" fill="#F76808"/>
<path d="M15 16C13.8 15.6 12.8333 16.1667 12.5 16.5V15.5L14.5 15L15 16Z" fill="#F76808"/>
<path d="M12 16L11 16C10.2 15.2 8.66667 16.3333 8 17L10 14L12 16Z" stroke="black"/>
<path d="M15 16C13.8 15.6 12.8333 16.1667 12.5 16.5V15.5L14.5 15L15 16Z" stroke="black"/>
<path d="M12.0987 19.5975L13.9976 17.5013" stroke="#F76808" stroke-width="1.5" stroke-linecap="round"/>
<path d="M8.10162 19.5963C8.84317 18.7776 9.25893 18.3186 10.0005 17.5" stroke="#F76808" stroke-width="1.5" stroke-linecap="round"/>
</svg>
