<svg width="20" height="20" viewBox="0 0 20 20" fill="none" xmlns="http://www.w3.org/2000/svg">
<rect x="0.5" y="0.5" width="19" height="19" rx="9.5" fill="#3F220D"/>
<rect x="0.5" y="0.5" width="19" height="19" rx="9.5" stroke="#5D3213"/>
<path d="M10 15C12.7614 15 15 12.7614 15 10C15 9.76865 14.6533 9.73042 14.5336 9.92842C13.9645 10.8703 12.9308 11.5 11.75 11.5C9.95507 11.5 8.5 10.0449 8.5 8.25C8.5 7.06923 9.12969 6.03553 10.0716 5.46638C10.2696 5.34673 10.2313 5 10 5C7.23858 5 5 7.23858 5 10C5 12.7614 7.23858 15 10 15Z" fill="#F76808"/>
</svg>
