<svg width="27" height="24" viewBox="0 0 27 24" fill="none" xmlns="http://www.w3.org/2000/svg">
<path d="M11.5229 3.86371L3.22874 18.4082C3.07892 18.6709 3.00003 18.9688 3 19.2721C2.99997 19.5754 3.07881 19.8734 3.22858 20.1361C3.37836 20.3988 3.59379 20.6169 3.85322 20.7686C4.11266 20.9202 4.40695 21 4.70652 21H21.2935C21.5931 21 21.8873 20.9202 22.1468 20.7686C22.4062 20.6169 22.6216 20.3988 22.7714 20.1361C22.9212 19.8734 23 19.5754 23 19.2721C23 18.9688 22.9211 18.6709 22.7713 18.4082L14.478 3.86371C14.3282 3.60111 14.1129 3.38304 13.8535 3.23143C13.5941 3.07982 13.2999 3 13.0004 3C12.701 3 12.4067 3.07982 12.1474 3.23143C11.888 3.38304 11.6726 3.60111 11.5229 3.86371Z" fill="#E33636"/>
<path d="M13.2635 8.34961H13.0503C12.5254 8.34961 12.0999 8.78682 12.0999 9.32615V13.9939C12.0999 14.5332 12.5254 14.9704 13.0503 14.9704H13.2635C13.7885 14.9704 14.214 14.5332 14.214 13.9939V9.32615C14.214 8.78682 13.7885 8.34961 13.2635 8.34961Z" fill="#FFF7ED"/>
<path d="M13.1569 18.6722C13.7408 18.6722 14.214 18.1859 14.214 17.5861C14.214 16.9863 13.7408 16.5 13.1569 16.5C12.5731 16.5 12.0999 16.9863 12.0999 17.5861C12.0999 18.1859 12.5731 18.6722 13.1569 18.6722Z" fill="#FFF7ED"/>
</svg>
