<svg width="23" height="22" viewBox="0 0 23 22" fill="none" xmlns="http://www.w3.org/2000/svg">
<path d="M10.4718 1.70846C10.9382 0.933481 12.0618 0.933482 12.5282 1.70847L14.8586 5.58087C15.0262 5.85928 15.2995 6.05784 15.616 6.13116L20.0191 7.15091C20.9002 7.35499 21.2474 8.42356 20.6545 9.10661L17.6918 12.5196C17.4788 12.765 17.3744 13.0863 17.4025 13.41L17.7932 17.9127C17.8714 18.8138 16.9625 19.4742 16.1296 19.1214L11.9681 17.3583C11.6689 17.2316 11.3311 17.2316 11.0319 17.3583L6.87038 19.1214C6.03754 19.4742 5.12856 18.8138 5.20677 17.9127L5.59754 13.41C5.62563 13.0863 5.52124 12.765 5.30823 12.5196L2.3455 9.1066C1.75257 8.42356 2.09977 7.35499 2.98095 7.15091L7.38397 6.13116C7.70053 6.05784 7.97383 5.85928 8.14138 5.58087L10.4718 1.70846Z" stroke="#63635E" stroke-width="1.5"/>
</svg>
