<svg width="20" height="20" viewBox="0 0 20 20" fill="none" xmlns="http://www.w3.org/2000/svg">
<rect x="0.25" y="0.25" width="19.5" height="19.5" rx="9.75" fill="#FFE0BB"/>
<rect x="0.25" y="0.25" width="19.5" height="19.5" rx="9.75" stroke="#FFC291" stroke-width="0.5"/>
<path d="M13 10C13 11.6569 11.6569 13 10 13C8.34315 13 7 11.6569 7 10C7 8.34315 8.34315 7 10 7C11.6569 7 13 8.34315 13 10Z" fill="#F76808"/>
<path fill-rule="evenodd" clip-rule="evenodd" d="M10 4.625C10.2071 4.625 10.375 4.79289 10.375 5V5.5C10.375 5.70711 10.2071 5.875 10 5.875C9.79289 5.875 9.625 5.70711 9.625 5.5V5C9.625 4.79289 9.79289 4.625 10 4.625ZM6.19931 6.19931C6.34575 6.05286 6.58319 6.05286 6.72964 6.19931L6.92605 6.39572C7.0725 6.54217 7.0725 6.77961 6.92605 6.92605C6.77961 7.0725 6.54217 7.0725 6.39572 6.92605L6.19931 6.72964C6.05286 6.58319 6.05286 6.34575 6.19931 6.19931ZM13.8006 6.19943C13.947 6.34588 13.947 6.58332 13.8006 6.72976L13.6041 6.92618C13.4577 7.07263 13.2203 7.07263 13.0738 6.92618C12.9274 6.77974 12.9274 6.5423 13.0738 6.39585L13.2702 6.19943C13.4167 6.05299 13.6541 6.05299 13.8006 6.19943ZM4.625 10C4.625 9.79289 4.79289 9.625 5 9.625H5.5C5.70711 9.625 5.875 9.79289 5.875 10C5.875 10.2071 5.70711 10.375 5.5 10.375H5C4.79289 10.375 4.625 10.2071 4.625 10ZM14.125 10C14.125 9.79289 14.2929 9.625 14.5 9.625H15C15.2071 9.625 15.375 9.79289 15.375 10C15.375 10.2071 15.2071 10.375 15 10.375H14.5C14.2929 10.375 14.125 10.2071 14.125 10ZM13.0738 13.0738C13.2203 12.9274 13.4577 12.9274 13.6041 13.0738L13.8006 13.2702C13.947 13.4167 13.947 13.6541 13.8006 13.8006C13.6541 13.947 13.4167 13.947 13.2702 13.8006L13.0738 13.6041C12.9274 13.4577 12.9274 13.2203 13.0738 13.0738ZM6.92605 13.0739C7.0725 13.2204 7.0725 13.4578 6.92605 13.6043L6.72964 13.8007C6.58319 13.9471 6.34575 13.9471 6.19931 13.8007C6.05286 13.6542 6.05286 13.4168 6.1993 13.2704L6.39572 13.0739C6.54217 12.9275 6.77961 12.9275 6.92605 13.0739ZM10 14.125C10.2071 14.125 10.375 14.2929 10.375 14.5V15C10.375 15.2071 10.2071 15.375 10 15.375C9.79289 15.375 9.625 15.2071 9.625 15V14.5C9.625 14.2929 9.79289 14.125 10 14.125Z" fill="#F76808"/>
</svg>
