<svg width="32" height="32" viewBox="0 0 32 32" fill="none" xmlns="http://www.w3.org/2000/svg">
<path d="M24 16C24 20.4183 20.4183 24 16 24C11.5817 24 8.00002 20.4183 8.00002 16C8.00002 11.5817 11.5817 7.99999 16 7.99999C20.4183 7.99999 24 11.5817 24 16Z" fill="#F76808"/>
<path fill-rule="evenodd" clip-rule="evenodd" d="M16 1.66666C16.5523 1.66666 17 2.11437 17 2.66666V3.99999C17 4.55227 16.5523 4.99999 16 4.99999C15.4477 4.99999 15 4.55227 15 3.99999V2.66666C15 2.11437 15.4477 1.66666 16 1.66666ZM5.86483 5.8648C6.25536 5.47428 6.88852 5.47428 7.27905 5.8648L7.80283 6.38859C8.19335 6.77911 8.19335 7.41228 7.80283 7.8028C7.41231 8.19332 6.77914 8.19332 6.38862 7.8028L5.86483 7.27902C5.47431 6.88849 5.47431 6.25533 5.86483 5.8648ZM26.1349 5.86515C26.5254 6.25567 26.5254 6.88884 26.1349 7.27936L25.6111 7.80315C25.2206 8.19367 24.5874 8.19367 24.1969 7.80314C23.8063 7.41262 23.8063 6.77946 24.1969 6.38893L24.7206 5.86515C25.1112 5.47462 25.7443 5.47462 26.1349 5.86515ZM1.66669 16C1.66669 15.4477 2.1144 15 2.66669 15H4.00002C4.55231 15 5.00002 15.4477 5.00002 16C5.00002 16.5523 4.55231 17 4.00002 17H2.66669C2.1144 17 1.66669 16.5523 1.66669 16ZM27 16C27 15.4477 27.4477 15 28 15H29.3334C29.8856 15 30.3334 15.4477 30.3334 16C30.3334 16.5523 29.8856 17 29.3334 17H28C27.4477 17 27 16.5523 27 16ZM24.1969 24.1968C24.5874 23.8063 25.2206 23.8063 25.6111 24.1968L26.1349 24.7206C26.5254 25.1111 26.5254 25.7443 26.1349 26.1348C25.7443 26.5254 25.1112 26.5254 24.7206 26.1348L24.1969 25.611C23.8063 25.2205 23.8063 24.5874 24.1969 24.1968ZM7.80283 24.1972C8.19335 24.5877 8.19336 25.2209 7.80283 25.6114L7.27905 26.1352C6.88852 26.5257 6.25536 26.5257 5.86483 26.1352C5.47431 25.7447 5.47431 25.1115 5.86483 24.721L6.38862 24.1972C6.77914 23.8067 7.41231 23.8067 7.80283 24.1972ZM16 27C16.5523 27 17 27.4477 17 28V29.3333C17 29.8856 16.5523 30.3333 16 30.3333C15.4477 30.3333 15 29.8856 15 29.3333V28C15 27.4477 15.4477 27 16 27Z" fill="#F76808"/>
</svg>
