<svg width="81" height="81" viewBox="0 0 81 81" fill="none" xmlns="http://www.w3.org/2000/svg">
<path d="M22.7216 30.2501C24.6146 26.9759 27.3774 24.2883 30.7045 22.4843C34.0317 20.6803 37.7936 19.8302 41.5744 20.0281C45.3552 20.226 49.0075 21.464 52.1276 23.6055C55.2477 25.7469 57.714 28.7082 59.2539 32.162M18.0001 23.8832L19.8718 31.9795C20.1906 33.3585 21.5685 34.2183 22.9494 33.8999L31.057 32.0308M58.2785 50.7499C56.3855 54.0241 53.6227 56.7117 50.2956 58.5157C46.9684 60.3197 43.2065 61.1698 39.4257 60.9719C35.645 60.774 31.9926 59.536 28.8725 57.3946C25.7524 55.2532 23.2861 52.2918 21.7462 48.838M63.0001 57.1169L61.1283 49.0205C60.8095 47.6415 59.4317 46.7817 58.0508 47.1001L49.9431 48.9692" stroke="#21201C" stroke-width="2" stroke-linecap="round"/>
</svg>
