<svg width="47" height="43" viewBox="0 0 47 43" fill="none" xmlns="http://www.w3.org/2000/svg">
<path d="M5.72155 11.2501C7.61452 7.97591 10.3773 5.28826 13.7045 3.48428C17.0316 1.68029 20.7936 0.830242 24.5743 1.02811C28.3551 1.22597 32.0074 2.46405 35.1275 4.60545C38.2477 6.74685 40.714 9.70817 42.2539 13.162M1 4.88316L2.87174 12.9795C3.19053 14.3585 4.5684 15.2183 5.94929 14.8999L14.057 13.0308M41.2785 31.7499C39.3855 35.0241 36.6227 37.7117 33.2955 39.5157C29.9684 41.3197 26.2064 42.1698 22.4257 41.9719C18.6449 41.774 14.9926 40.536 11.8725 38.3946C8.75234 36.2532 6.28601 33.2918 4.74612 29.838M46 38.1169L44.1283 30.0205C43.8095 28.6415 42.4316 27.7817 41.0507 28.1001L32.943 29.9692" stroke="#21201C" stroke-width="2" stroke-linecap="round"/>
</svg>
