<svg width="28" height="28" viewBox="0 0 28 28" fill="none" xmlns="http://www.w3.org/2000/svg">
<path d="M1.31448 25.3882L2.25735 25.7214H2.25735L1.31448 25.3882ZM2.84572 26.9195L3.17889 27.8623H3.17889L2.84572 26.9195ZM7.08105 25.4229L7.41422 26.3657L7.08105 25.4229ZM7.91777 25.4923L8.3863 24.6089L7.91777 25.4923ZM2.68557 20.4065L3.55531 19.9129L2.68557 20.4065ZM2.76991 21.2694L3.71278 21.6025L2.76991 21.2694ZM2 14C2 7.37258 7.37258 2 14 2V0C6.26801 0 0 6.26801 0 14H2ZM3.55531 19.9129C2.56551 18.1686 2 16.1519 2 14H0C0 16.5068 0.659765 18.8626 1.81584 20.9L3.55531 19.9129ZM2.25735 25.7214L3.71278 21.6025L1.82704 20.9362L0.371615 25.055L2.25735 25.7214ZM2.51255 25.9766C2.35403 26.0326 2.20133 25.8799 2.25735 25.7214L0.371615 25.055C-0.24455 26.7988 1.43514 28.4785 3.17889 27.8623L2.51255 25.9766ZM6.74788 24.48L2.51255 25.9766L3.17889 27.8623L7.41422 26.3657L6.74788 24.48ZM14 26C11.9699 26 10.0603 25.4967 8.3863 24.6089L7.44924 26.3758C9.40487 27.4129 11.6354 28 14 28V26ZM26 14C26 20.6274 20.6274 26 14 26V28C21.732 28 28 21.732 28 14H26ZM14 2C20.6274 2 26 7.37258 26 14H28C28 6.26801 21.732 0 14 0V2ZM7.41422 26.3657C7.41206 26.3665 7.41309 26.3655 7.41905 26.366C7.42556 26.3666 7.43635 26.369 7.44924 26.3758L8.3863 24.6089C7.89802 24.3499 7.30467 24.2833 6.74788 24.48L7.41422 26.3657ZM1.81584 20.9C1.8233 20.9131 1.82602 20.9243 1.82671 20.9311C1.82735 20.9373 1.82626 20.9384 1.82704 20.9362L3.71278 21.6025C3.91659 21.0258 3.83773 20.4106 3.55531 19.9129L1.81584 20.9Z" fill="#63635E"/>
</svg>
