<svg width="15" height="12" viewBox="0 0 15 12" fill="none" xmlns="http://www.w3.org/2000/svg">
<circle cx="2.5" cy="2.5" r="2.5" transform="matrix(-1 0 0 1 10 1)" stroke="#80807A" stroke-width="1.5"/>
<path d="M3 9.20893C3 8.68603 3.3346 8.2218 3.83066 8.05645V8.05645C5.88791 7.3707 8.11209 7.3707 10.1693 8.05645V8.05645C10.6654 8.2218 11 8.68603 11 9.20893V9.82114C11 10.4453 10.4502 10.9267 9.83148 10.8442L9.44716 10.793C7.82291 10.5764 6.17709 10.5764 4.55284 10.793L4.16852 10.8442C3.54978 10.9267 3 10.4454 3 9.82114V9.20893Z" stroke="#80807A" stroke-width="1.5"/>
<path d="M11 6C12.1046 6 13 5.10457 13 4C13 2.89543 12.1046 2 11 2" stroke="#80807A" stroke-width="1.5" stroke-linecap="round"/>
<path d="M12.6281 9.9611L12.8334 9.98977C13.4491 10.0758 14 9.60869 14 9.00065V8.32703C14 7.88648 13.7167 7.49349 13.2923 7.34531C12.8689 7.1975 12.4369 7.0824 12 7" stroke="#80807A" stroke-width="1.5" stroke-linecap="round"/>
<path d="M4 6C2.89543 6 2 5.10457 2 4C2 2.89543 2.89543 2 4 2" stroke="#80807A" stroke-width="1.5" stroke-linecap="round"/>
<path d="M1.68596 9.9611L1.58332 9.98977C1.27545 10.0758 1 9.60869 1 9.00065V8.32703C1 7.88648 1.14165 7.49349 1.35386 7.34531C1.56553 7.1975 1.78156 7.0824 2 7" stroke="#80807A" stroke-width="1.5" stroke-linecap="round"/>
</svg>
