<svg width="22" height="26" viewBox="0 0 22 26" fill="none" xmlns="http://www.w3.org/2000/svg">
<path d="M5 6.5C5 9.53757 7.68629 12 11 12C14.3137 12 17 9.53757 17 6.5C17 3.46243 14.3137 1 11 1C7.68629 1 5 3.46243 5 6.5Z" stroke="#21201C" stroke-width="1.5"/>
<path d="M1 20.2288C1 18.9723 1.77265 17.8515 2.93013 17.4289C8.14863 15.5237 13.8514 15.5237 19.0699 17.4289C20.2274 17.8515 21 18.9723 21 20.2288V22.1499C21 23.884 19.4976 25.2161 17.8183 24.9708L16.4548 24.7717C12.8366 24.2433 9.16336 24.2433 5.54518 24.7717L4.18172 24.9708C2.50243 25.2161 1 23.884 1 22.1499V20.2288Z" stroke="#21201C" stroke-width="1.5"/>
</svg>
