<svg width="36" height="36" viewBox="0 0 20 24" fill="none" xmlns="http://www.w3.org/2000/svg">
<path d="M5 6C5 8.76142 7.23858 11 10 11C12.7614 11 15 8.76142 15 6C15 3.23858 12.7614 1 10 1C7.23858 1 5 3.23858 5 6Z" stroke="#80807A" stroke-width="1.5"/>
<path d="M1 18.7589C1 17.6421 1.69538 16.6458 2.73712 16.2702C7.43377 14.5766 12.5662 14.5766 17.2629 16.2702C18.3046 16.6458 19 17.6421 19 18.7589V20.4666C19 22.008 17.6478 23.1921 16.1364 22.9741L14.9093 22.7971C11.653 22.3274 8.34702 22.3274 5.09066 22.7971L3.86355 22.9741C2.35219 23.1921 1 22.008 1 20.4666V18.7589Z" stroke="#80807A" stroke-width="1.5"/>
</svg>
